<svg width="33" height="33" viewBox="0 0 33 33" fill="none" xmlns="http://www.w3.org/2000/svg">
<circle cx="16.4883" cy="16.4883" r="16.4883" fill="#101010"/>
<path d="M21.618 8.70623L13.9094 16.4148C13.774 16.5503 13.774 16.7699 13.9094 16.9053L16.0702 19.0661C16.2056 19.2015 16.4252 19.2015 16.5607 19.0661L24.2693 11.3575C24.2704 11.3564 24.2715 11.3552 24.2727 11.3541C25.2033 10.4235 25.5424 9.1255 25.2902 7.92705C25.2646 7.80559 25.1699 7.71089 25.0484 7.68533C23.85 7.43309 22.552 7.77224 21.6214 8.70281C21.6203 8.70395 21.6191 8.70509 21.618 8.70623Z" fill="white"/>
<path d="M22.6865 18.087L18.3353 22.4382C18.1998 22.5736 17.9802 22.5736 17.8448 22.4382L16.8042 21.3975C16.6687 21.2621 16.6687 21.0425 16.8042 20.9071L21.1554 16.5558C21.156 16.5552 21.1567 16.5545 21.1573 16.5539C21.6736 16.0376 22.3854 15.8362 23.0539 15.9496C23.1764 15.9703 23.272 16.0659 23.2928 16.1884C23.4062 16.857 23.2047 17.5687 22.6885 18.085C22.6878 18.0856 22.6871 18.0863 22.6865 18.087Z" fill="white"/>
<path d="M16.4209 11.8213L12.0696 16.1725C11.9342 16.308 11.7146 16.308 11.5792 16.1725L10.5385 15.1319C10.4031 14.9965 10.4031 14.7769 10.5385 14.6414L14.8897 10.2902C14.8904 10.2896 14.8911 10.2889 14.8917 10.2882C15.408 9.772 16.1197 9.57054 16.7883 9.68395C16.9108 9.70472 17.0064 9.80031 17.0271 9.92275C17.1405 10.5913 16.9391 11.3031 16.4228 11.8194C16.4222 11.82 16.4215 11.8207 16.4209 11.8213Z" fill="white"/>
<path d="M16.3578 23.7935C16.8991 23.3819 17.1691 22.7229 16.7273 22.3373C16.3137 21.9763 16.0689 22.6469 15.6805 23.0354C15.1233 23.5925 14.3497 23.6374 14.0567 24.418C13.8148 25.0624 12.4925 26.0887 13.0294 25.8336C13.5662 25.5786 14.0714 25.4146 14.687 25.0483C15.3883 24.6311 15.8166 24.205 16.3578 23.7935Z" fill="white"/>
<path d="M9.17918 16.6227C9.59073 16.0814 10.2497 15.8113 10.6353 16.2531C10.9964 16.6668 10.3257 16.9115 9.93724 17.3C9.38012 17.8571 9.3353 18.6308 8.55466 18.9238C7.91021 19.1657 6.88399 20.488 7.13903 19.9511C7.39407 19.4143 7.55806 18.9091 7.92434 18.2935C8.34158 17.5922 8.76763 17.1639 9.17918 16.6227Z" fill="white"/>
<path d="M13.049 22.0242C11.9745 23.4075 10.9685 23.8248 9.38228 24.5188C8.84598 24.7534 7.97446 25.0329 7.97446 25.0329C7.97446 25.0329 7.77209 24.997 8.35674 23.7858C8.94139 22.5747 9.57085 21.1253 10.9524 19.9276C11.8408 19.1575 12.4105 17.8917 13.5004 18.3249C14.0333 18.5367 14.3177 18.8334 14.5383 19.3627C14.9955 20.4596 13.7798 21.0835 13.049 22.0242Z" fill="white"/>
</svg>
